<svg width="1252" height="449" viewBox="0 0 1252 449" fill="none" xmlns="http://www.w3.org/2000/svg">
<g filter="url(#filter0_d_9939_34)">
<path d="M27 310.598C83.5428 345.575 215.24 411.533 289.688 395.543C382.748 375.556 405.719 272.623 549.432 248.638C693.145 224.654 798.573 308.1 909.892 187.678C1021.21 67.2555 1075.4 -11.6933 1225 5.29566" stroke="#A044E3" stroke-width="5" stroke-linecap="round" stroke-linejoin="round"/>
</g>
<rect x="69" y="312" width="86" height="86" rx="20" fill="white"/>
<rect x="526" y="207" width="86" height="86" rx="20" fill="white"/>
<rect x="956" y="51" width="86" height="86" rx="20" fill="white"/>
<path d="M568.26 227.187C568.077 227.285 562.394 232.536 555.633 238.833C545.82 247.988 543.297 250.393 543.168 250.727C542.769 251.709 543.103 252.776 543.944 253.315C544.57 253.714 545.54 253.757 546.101 253.412C546.424 253.208 550.716 249.229 564.864 236.019C567.204 233.841 569.155 232.062 569.199 232.062C569.252 232.062 574.407 236.838 580.672 242.672C586.926 248.517 592.199 253.369 592.383 253.466C592.577 253.563 592.986 253.639 593.321 253.639C594.852 253.639 595.844 252.075 595.197 250.663C595.057 250.35 593.752 249.067 590.301 245.864L585.6 241.497L585.589 236.31V231.123L585.352 230.768C584.813 229.98 584.726 229.959 582.484 229.959C580.596 229.959 580.446 229.97 580.09 230.196C579.356 230.649 579.292 230.886 579.227 233.312L579.173 235.48L574.86 231.447C572.487 229.225 570.363 227.317 570.147 227.209C569.641 226.939 568.735 226.929 568.26 227.187Z" fill="#4D0A97"/>
<path d="M560.163 243.988L551.191 252.356L551.212 260.519L551.245 268.671L551.493 269.124C551.849 269.803 552.291 270.267 552.938 270.623L553.509 270.935L558.178 270.968L562.837 271V264.196V257.402H569.199H575.561V264.196V271L580.23 270.968L584.889 270.935L585.46 270.623C586.107 270.267 586.549 269.803 586.905 269.124L587.153 268.671L587.186 260.508L587.207 252.356L578.246 243.988C573.307 239.383 569.242 235.62 569.199 235.62C569.167 235.62 565.091 239.383 560.163 243.988Z" fill="#4D0A97"/>
<path d="M997.023 72.0785C994.401 72.3278 991.47 73.1616 989.2 74.3049C986.854 75.4912 984.395 77.3651 982.71 79.2563C979.409 82.9698 977.536 87.2592 977.08 92.1418C976.727 95.9757 977.553 100.3 979.315 103.79C980.501 106.136 982.375 108.595 984.266 110.28C987.98 113.581 992.269 115.454 997.152 115.91C1000.99 116.262 1005.31 115.437 1008.8 113.675C1011.15 112.489 1013.6 110.615 1015.29 108.724C1018.59 105.01 1020.46 100.721 1020.92 95.8382C1021.27 92.0043 1020.45 87.6804 1018.69 84.1904C1017.5 81.8437 1015.62 79.3852 1013.73 77.7004C1010.02 74.3995 1005.73 72.5255 1000.85 72.0699C999.774 71.9754 998.097 71.9754 997.023 72.0785ZM1000.93 80.0643C1004.65 81.0271 1007.19 84.775 1006.66 88.4971C1006.33 90.7493 1005.43 92.2536 1003.38 93.9556C1002.52 94.6691 1002 95.3826 1001.75 96.1992C1001.6 96.6892 1001.58 96.9986 1001.58 98.5975V100.437H998.991H996.404L996.447 98.1763C996.499 95.735 996.559 95.3052 997.023 94.0845C997.599 92.606 998.734 91.0759 1000.12 89.9498C1001.02 89.2106 1001.36 88.755 1001.5 88.0759C1001.68 87.1991 1001.43 86.3652 1000.81 85.7377C999.361 84.2936 996.903 85.0328 996.49 87.0443L996.387 87.5429H993.817H991.238L991.298 86.8982C991.607 83.4426 994.203 80.5801 997.599 79.9354C998.501 79.7634 1000.02 79.8236 1000.93 80.0643ZM1000.05 103.257C1000.56 103.48 1001.11 104.039 1001.35 104.555C1001.6 105.105 1001.6 106.085 1001.35 106.635C1001.11 107.151 1000.56 107.709 1000.04 107.941C999.49 108.199 998.51 108.199 997.96 107.941C996.851 107.434 996.223 106.171 996.507 105.002C996.877 103.454 998.587 102.612 1000.05 103.257Z" fill="#4D0A97"/>
<path d="M112.061 332.044C111.924 332.082 108.149 332.929 103.664 333.926C99.1418 334.922 95.3047 335.832 95.0306 335.969C94.3579 336.305 93.6603 337.04 93.299 337.775L93 338.386V355.889V373.392L93.2865 373.978C93.6478 374.7 94.3828 375.485 95.0306 375.809C95.2923 375.946 99.204 376.88 103.726 377.89C112.995 379.958 113.281 380.007 114.515 379.397C115.412 378.961 116.271 378.027 116.57 377.155C116.782 376.544 116.795 375.51 116.795 355.889C116.795 336.218 116.782 335.246 116.57 334.611C116.259 333.726 115.312 332.705 114.465 332.343C113.817 332.069 112.571 331.92 112.061 332.044ZM108.709 353.509C110.728 354.431 110.665 357.446 108.61 358.318C107.974 358.58 106.978 358.555 106.417 358.268C104.387 357.222 104.411 354.556 106.455 353.485C106.965 353.21 108.074 353.223 108.709 353.509Z" fill="#4D0A97"/>
<path d="M122.388 337.501C122.152 337.675 122.152 338.012 122.152 355.889C122.152 373.953 122.152 374.102 122.401 374.277C122.6 374.439 123.073 374.464 124.955 374.426C127.172 374.389 127.284 374.376 127.882 374.053C128.63 373.654 129.302 372.969 129.701 372.209L130 371.648V355.889V340.13L129.664 339.494C129.215 338.647 128.256 337.8 127.446 337.538C126.574 337.252 122.762 337.227 122.388 337.501Z" fill="#4D0A97"/>
<defs>
<filter id="filter0_d_9939_34" x="0.499756" y="0.500366" width="1251" height="448" filterUnits="userSpaceOnUse" color-interpolation-filters="sRGB">
<feFlood flood-opacity="0" result="BackgroundImageFix"/>
<feColorMatrix in="SourceAlpha" type="matrix" values="0 0 0 0 0 0 0 0 0 0 0 0 0 0 0 0 0 0 127 0" result="hardAlpha"/>
<feOffset dy="24"/>
<feGaussianBlur stdDeviation="12"/>
<feComposite in2="hardAlpha" operator="out"/>
<feColorMatrix type="matrix" values="0 0 0 0 0.215686 0 0 0 0 0.203922 0 0 0 0 0.662745 0 0 0 0.3 0"/>
<feBlend mode="normal" in2="BackgroundImageFix" result="effect1_dropShadow_9939_34"/>
<feBlend mode="normal" in="SourceGraphic" in2="effect1_dropShadow_9939_34" result="shape"/>
</filter>
</defs>
</svg>
