<?xml version="1.0" encoding="UTF-8"?>
<svg id="Layer_1" xmlns="http://www.w3.org/2000/svg" viewBox="0 0 1239.23 262.5">
  <defs>
    <style>
      .cls-1 {
        fill: #a044e3;
      }

      .cls-2 {
        fill: #4d0a97;
      }
    </style>
  </defs>
  <g>
    <path class="cls-1" d="M507.84,253.15h-33.67l-65.55-107.53v107.53h-33.67V89.71h33.67l65.67,107.76v-107.76h33.56v163.43Z"/>
    <path class="cls-1" d="M607.74,89.71h33.67v113.15c0,10.4-2.3,19.59-6.9,27.56s-11.09,14.13-19.48,18.46c-8.38,4.34-17.85,6.51-28.4,6.51-17.29,0-30.76-4.4-40.41-13.19-9.65-8.79-14.48-21.23-14.48-37.32h33.9c0,8.01,1.68,13.92,5.05,17.74,3.37,3.82,8.68,5.72,15.94,5.72,6.44,0,11.56-2.21,15.38-6.62,3.82-4.41,5.72-10.7,5.72-18.86v-113.15Z"/>
    <path class="cls-2" d="M736.93,190.29h-31.65v62.86h-28.4V89.71h57.47c18.86,0,33.41,4.23,43.66,12.69,10.25,8.46,15.38,20.71,15.38,36.74,0,10.94-2.64,20.09-7.91,27.47-5.28,7.38-12.63,13.05-22.06,17.02l36.71,68.06v1.46h-30.42l-32.78-62.86ZM705.28,167.39h29.18c9.58,0,17.06-2.41,22.45-7.24,5.39-4.83,8.08-11.43,8.08-19.81s-2.49-15.53-7.46-20.32c-4.98-4.79-12.4-7.26-22.28-7.41h-29.97v54.78Z"/>
    <path class="cls-2" d="M920.45,180.19h-67.12v50.29h78.46v22.67h-106.86V89.71h106.07v22.9h-77.68v45.12h67.12v22.45Z"/>
    <path class="cls-2" d="M1050.99,215.09h-63.31l-13.24,38.05h-29.52l61.74-163.43h25.48l61.85,163.43h-29.63l-13.36-38.05ZM995.65,192.2h47.37l-23.68-67.8-23.68,67.8Z"/>
    <path class="cls-2" d="M1145.5,192.53v60.61h-28.4V89.71h62.52c18.26,0,32.76,4.76,43.5,14.27,10.74,9.51,16.11,22.1,16.11,37.76s-5.26,28.51-15.77,37.42c-10.51,8.91-25.24,13.37-44.17,13.37h-33.79ZM1145.5,169.63h34.12c10.1,0,17.81-2.37,23.12-7.13,5.31-4.75,7.97-11.62,7.97-20.6s-2.69-15.88-8.08-21.16c-5.39-5.28-12.8-7.99-22.23-8.14h-34.91v57.02Z"/>
  </g>
  <g>
    <polygon class="cls-2" points="235.12 163.47 176.33 163.47 120.68 107.83 105.74 107.83 105.74 262.5 64.17 262.5 64.17 66.26 137.9 66.26 235.12 163.47"/>
    <g>
      <polygon class="cls-2" points="290.29 66.25 290.29 106.8 249.75 66.25 290.29 66.25"/>
      <polygon class="cls-2" points="281.24 180.05 290.29 180.05 290.29 262.49 216.55 262.49 117.53 163.47 176.32 163.47 233.77 220.92 248.72 220.92 248.72 147.53 281.24 180.05"/>
    </g>
    <g>
      <polygon class="cls-1" points="0 171.74 55.86 115.88 55.86 171.74 0 171.74"/>
      <polygon class="cls-2" points="114.06 116.14 114.39 116.14 114.06 116.47 114.06 116.14"/>
      <polygon class="cls-1" points="343.46 171.74 284.68 171.74 171.74 58.79 156.97 73.57 141.34 57.94 113.8 57.94 171.74 0 343.46 171.74"/>
    </g>
  </g>
</svg>